<svg xmlns="http://www.w3.org/2000/svg" viewBox="0 0 496.097 496.098">
  <defs>
    <style>
      .cls-1 {
        fill: #ffeb33;
      }

      .cls-2 {
        fill: #231f20;
      }
    </style>
  </defs>
  <g id="theme" transform="translate(-0.048)">
    <path id="Path_9" data-name="Path 9" class="cls-1" d="M248.148,72A176.041,176.041,0,0,0,123.667,372.48L372.628,123.519A175.442,175.442,0,0,0,248.148,72Zm0,0"/>
    <g id="Group_1" data-name="Group 1">
      <path id="Path_10" data-name="Path 10" class="cls-2" d="M248.148,424A176,176,0,0,0,390.941,145.09L146,391.336A175.2,175.2,0,0,0,248.148,424Zm0,0"/>
      <path id="Path_11" data-name="Path 11" class="cls-2" d="M248.148,56a8,8,0,0,0,8-8V8a8,8,0,0,0-16,0V48a8,8,0,0,0,8,8Zm0,0"/>
      <path id="Path_12" data-name="Path 12" class="cls-2" d="M8.148,256h40a8,8,0,0,0,0-16h-40a8,8,0,0,0,0,16Zm0,0"/>
      <path id="Path_13" data-name="Path 13" class="cls-2" d="M101.066,112.23a8,8,0,0,0,11.312-11.309L84.1,72.64A8,8,0,1,0,72.789,83.953Zm0,0"/>
      <path id="Path_14" data-name="Path 14" class="cls-2" d="M493.8,2.344a8,8,0,0,0-11.312,0L372.355,112.481A183.815,183.815,0,0,0,112.629,372.207L2.492,482.344A8,8,0,1,0,13.8,493.657l480-480a8,8,0,0,0,0-11.313ZM80.149,248A167.838,167.838,0,0,1,361.044,123.793l-237.1,237.1A166.691,166.691,0,0,1,80.149,248Zm0,0"/>
      <path id="Path_15" data-name="Path 15" class="cls-2" d="M391.57,137.113a7.84,7.84,0,0,0-6.3,2.336L140.324,385.695a8,8,0,0,0,1.023,12.152A184,184,0,0,0,397.426,140.406a7.988,7.988,0,0,0-5.855-3.293Zm0,0"/>
    </g>
  </g>
</svg>
